<svg xmlns="http://www.w3.org/2000/svg" xlink="http://www.w3.org/1999/xlink" viewBox="0 0 144 22" id="svg551342822"><path d="M 12 0 L 14.694 8.292 L 23.413 8.292 L 16.359 13.416 L 19.053 21.708 L 12 16.584 L 4.947 21.708 L 7.641 13.416 L 0.587 8.292 L 9.306 8.292 Z" fill="var(--token-aef216eb-ea0a-4bfa-8e05-dbdd54108c78, rgb(26, 94, 255)) /* {&quot;name&quot;:&quot;Accent&quot;} */"/><path d="M 42 0 L 44.694 8.292 L 53.413 8.292 L 46.359 13.416 L 49.053 21.708 L 42 16.584 L 34.947 21.708 L 37.641 13.416 L 30.587 8.292 L 39.306 8.292 Z" fill="var(--token-aef216eb-ea0a-4bfa-8e05-dbdd54108c78, rgb(26, 94, 255)) /* {&quot;name&quot;:&quot;Accent&quot;} */"/><path d="M 72 0 L 74.694 8.292 L 83.413 8.292 L 76.359 13.416 L 79.053 21.708 L 72 16.584 L 64.947 21.708 L 67.641 13.416 L 60.587 8.292 L 69.306 8.292 Z" fill="var(--token-aef216eb-ea0a-4bfa-8e05-dbdd54108c78, rgb(26, 94, 255)) /* {&quot;name&quot;:&quot;Accent&quot;} */"/><path d="M 102 0 L 104.694 8.292 L 113.413 8.292 L 106.359 13.416 L 109.053 21.708 L 102 16.584 L 94.947 21.708 L 97.641 13.416 L 90.587 8.292 L 99.306 8.292 Z" fill="var(--token-aef216eb-ea0a-4bfa-8e05-dbdd54108c78, rgb(26, 94, 255)) /* {&quot;name&quot;:&quot;Accent&quot;} */"/><path d="M 132 0 L 134.694 8.292 L 143.413 8.292 L 136.359 13.416 L 139.053 21.708 L 132 16.584 L 124.947 21.708 L 127.641 13.416 L 120.587 8.292 L 129.306 8.292 Z" fill="var(--token-aef216eb-ea0a-4bfa-8e05-dbdd54108c78, rgb(26, 94, 255)) /* {&quot;name&quot;:&quot;Accent&quot;} */"/></svg>