<svg xmlns="http://www.w3.org/2000/svg" width="1920" height="910" fill="none"><mask id="b" width="2251" height="910" x="-165" y="0" maskUnits="userSpaceOnUse" style="mask-type:alpha"><path fill="url(#a)" d="M-165 0h2250.33v910H-165z"/></mask><g stroke-width="1.5" mask="url(#b)"><path stroke="#fff" d="M2061.59-593.948c-59.57 20.272-177.05 108.571-170.44 299.584 8.26 238.766 188.46 388.182 233.51 613.433 33.25 166.252 28.53 582.65-174.19 757.591"/><path stroke="#fff" d="M1980.45-544.672c-59.56 20.272-177.04 108.571-170.44 299.583 8.26 238.767 188.46 388.183 233.51 613.434 33.25 166.252 28.54 582.649-174.19 757.595"/><path stroke="#fff" d="M1898.08-497.475c-59.56 20.272-177.04 108.571-170.44 299.584 8.26 238.766 188.46 388.182 233.51 613.433 33.25 166.252 28.53 582.65-174.19 757.598"/><path stroke="#fff" d="M1814.56-452.344c-59.57 20.272-177.05 108.571-170.44 299.584 8.26 238.766 188.46 388.182 233.51 613.433 33.25 166.252 28.53 582.647-174.19 757.597"/><path stroke="url(#c)" d="M1729.91-409.368c-59.57 20.273-177.05 108.571-170.44 299.584 8.26 238.766 188.46 388.183 233.51 613.434 33.25 166.252 28.53 582.65-174.2 757.59"/><path stroke="#fff" d="M1644.12-368.705c-59.56 20.273-177.05 108.571-170.44 299.584 8.26 238.766 188.46 388.182 233.51 613.433 33.25 166.252 28.53 582.648-174.19 757.598"/><path stroke="#fff" d="M1557.18-330.579c-59.57 20.272-177.05 108.571-170.44 299.584 8.26 238.766 188.46 388.182 233.51 613.433 33.25 166.252 28.53 582.652-174.2 757.592"/><path stroke="#fff" d="M1469.05-295.278C1409.48-275.005 1292-186.707 1298.61 4.306c8.26 238.766 188.46 388.183 233.51 613.434 33.25 166.252 28.53 582.65-174.2 757.59"/><path stroke="#fff" d="M1379.71-263.169c-59.57 20.273-177.05 108.571-170.44 299.584 8.26 238.766 188.46 388.182 233.51 613.434 33.25 166.252 28.53 582.651-174.19 757.591"/><path stroke="url(#d)" d="M1289.14-234.717c-59.57 20.272-177.05 108.571-170.44 299.584 8.25 238.766 188.46 388.182 233.51 613.433 33.25 166.252 28.53 582.65-174.2 757.59"/><path stroke="#fff" d="M1197.34-210.516c-59.57 20.272-177.05 108.571-170.44 299.584 8.26 238.766 188.46 388.182 233.51 613.433 33.25 166.252 28.53 582.649-174.2 757.599"/><path stroke="#fff" d="M1104.36-191.31c-59.56 20.273-177.044 108.57-170.436 299.584 8.259 238.766 188.456 388.182 233.506 613.433 33.25 166.252 28.54 582.653-174.19 757.593"/><path stroke="#fff" d="M1010.36-178.051c-59.567 20.272-177.048 108.57-170.44 299.584 8.259 238.766 188.46 388.182 233.51 613.433 33.25 166.252 28.53 582.654-174.194 757.594"/><path stroke="#fff" d="M915.619-171.936C856.053-151.663 738.572-63.365 745.18 127.648c8.259 238.766 188.46 388.183 233.51 613.434 33.25 166.252 28.53 582.648-174.194 757.598"/><path stroke="#fff" d="M820.717-174.423c-59.566 20.272-177.047 108.57-170.44 299.584 8.259 238.766 188.46 388.182 233.51 613.433 33.251 166.252 28.532 582.646-174.194 757.596"/><path stroke="#fff" d="M726.647-187.21c-59.567 20.273-177.048 108.571-170.44 299.584 8.259 238.766 188.46 388.182 233.51 613.434 33.251 166.252 28.532 582.652-174.194 757.592"/><path stroke="#fff" d="M635.008-212.016c-59.566 20.272-177.047 108.571-170.44 299.584C472.827 326.334 653.028 475.75 698.078 701c33.251 166.252 28.532 582.649-174.194 757.599"/><path stroke="#fff" d="M532.303-256.842c-59.566 20.273-177.047 108.571-170.44 299.584 8.259 238.766 188.46 388.183 233.51 613.434 33.251 166.252 28.532 582.644-174.194 757.594"/><path stroke="url(#e)" d="M444.311-292.476c-59.567 20.273-177.047 108.571-170.44 299.584 8.259 238.766 188.46 388.183 233.51 613.434 33.251 166.252 28.532 582.648-174.194 757.598"/><path stroke="#fff" d="M353.672-320.718c-59.566 20.272-177.047 108.571-170.44 299.584 8.259 238.766 188.46 388.182 233.511 613.433 33.25 166.252 28.531 582.651-174.195 757.591"/><path stroke="#fff" d="M261.016-341.395C201.45-321.122 83.969-232.824 90.576-41.811c8.26 238.766 188.46 388.183 233.51 613.434 33.251 166.252 28.532 582.647-174.194 757.597"/><path stroke="#fff" d="M166.989-354.507C107.422-334.234-10.059-245.936-3.451-54.923c8.259 238.766 188.46 388.183 233.51 613.434 33.25 166.252 28.532 582.649-174.194 757.589"/><path stroke="#fff" d="M72.227-360.222C12.66-339.95-104.82-251.651-98.213-60.638c8.26 238.766 188.46 388.182 233.51 613.433 33.251 166.252 28.532 582.645-174.194 757.595"/><path stroke="#fff" d="M-22.699-358.832c-59.566 20.273-177.047 108.571-170.44 299.584 8.259 238.766 188.46 388.183 233.51 613.434 33.25 166.252 28.532 582.654-174.194 757.594"/></g><defs><linearGradient id="a" x1="960.166" x2="960.166" y1="0" y2="910" gradientUnits="userSpaceOnUse"><stop offset=".267" stop-color="#C4C4C4"/><stop offset="1" stop-color="#C4C4C4" stop-opacity="0"/></linearGradient><linearGradient id="c" x1="1683.83" x2="1683.83" y1="-409.368" y2="1261.24" gradientUnits="userSpaceOnUse"><stop offset=".255" stop-color="#fff"/><stop offset=".328" stop-color="#FAFAFF"/><stop offset=".385" stop-color="#B9C1FF"/><stop offset=".488" stop-color="#fff"/><stop offset="1" stop-color="#fff"/></linearGradient><linearGradient id="d" x1="1243.06" x2="1243.06" y1="-234.717" y2="1435.89" gradientUnits="userSpaceOnUse"><stop offset=".415" stop-color="#fff"/><stop offset=".476" stop-color="#B9C1FF"/><stop offset=".526" stop-color="#fff"/><stop offset="1" stop-color="#fff"/></linearGradient><linearGradient id="e" x1="398.237" x2="398.237" y1="-292.476" y2="1378.14" gradientUnits="userSpaceOnUse"><stop offset=".255" stop-color="#fff"/><stop offset=".318" stop-color="#B9C1FF"/><stop offset=".406" stop-color="#fff"/><stop offset="1" stop-color="#fff"/></linearGradient></defs></svg>