<svg width="38" height="38" viewBox="0 0 38 38" fill="none" xmlns="http://www.w3.org/2000/svg" id="svg1301945708_1622">
<path d="M4.7513 11.7023V15.8333C4.7513 16.3774 6.10289 17.2183 8.56671 17.8667C11.2985 18.5856 15.0217 19 19.0013 19C22.9809 19 26.7041 18.5856 29.4359 17.8667C31.8997 17.2183 33.2513 16.3774 33.2513 15.8333V11.7023C30.6964 13.304 25.308 14.25 19.0013 14.25C12.6946 14.25 7.30623 13.304 4.7513 11.7023ZM3.16797 9.5C3.16797 6.59738 10.188 4.75 19.0013 4.75C27.8146 4.75 34.8346 6.59738 34.8346 9.5V28.5C34.8346 31.4026 27.8146 33.25 19.0013 33.25C10.188 33.25 3.16797 31.4026 3.16797 28.5V9.5ZM33.2513 18.0357C30.6964 19.6374 25.308 20.5833 19.0013 20.5833C12.6946 20.5833 7.30623 19.6374 4.7513 18.0357V22.1667C4.7513 22.7107 6.10289 23.5517 8.56671 24.2C11.2985 24.9189 15.0217 25.3333 19.0013 25.3333C22.9809 25.3333 26.7041 24.9189 29.4359 24.2C31.8997 23.5517 33.2513 22.7107 33.2513 22.1667V18.0357ZM33.2513 24.369C30.6964 25.9707 25.308 26.9167 19.0013 26.9167C12.6946 26.9167 7.30623 25.9707 4.7513 24.369V28.5C4.7513 29.0441 6.10289 29.885 8.56671 30.5334C11.2985 31.2522 15.0217 31.6667 19.0013 31.6667C22.9809 31.6667 26.7041 31.2522 29.4359 30.5334C31.8997 29.885 33.2513 29.0441 33.2513 28.5V24.369ZM19.0013 12.6667C22.9809 12.6667 26.7041 12.2522 29.4359 11.5334C31.8997 10.885 33.2513 10.0441 33.2513 9.5C33.2513 8.95593 31.8997 8.11501 29.4359 7.46664C26.7041 6.74775 22.9809 6.33333 19.0013 6.33333C15.0217 6.33333 11.2985 6.74775 8.56671 7.46664C6.10289 8.11501 4.7513 8.95593 4.7513 9.5C4.7513 10.0441 6.10289 10.885 8.56671 11.5334C11.2985 12.2522 15.0217 12.6667 19.0013 12.6667Z" fill="#1A5EFF"/>
</svg>