<svg width="38" height="38" viewBox="0 0 38 38" fill="none" xmlns="http://www.w3.org/2000/svg" id="svg-1534986543_2311">
<path d="M29.2917 14.2499C30.615 14.2499 31.6783 13.1866 31.6783 11.8749V10.2916C31.6783 8.97991 30.615 7.91659 29.3033 7.91659H8.70833C7.39666 7.91659 6.33333 8.97991 6.33333 10.2916V11.8749C6.33333 13.1866 7.39666 14.2499 8.70833 14.2499H29.2917ZM4.75 26.1249C4.75 23.9388 6.52221 22.1666 8.70833 22.1666H29.3033C31.4894 22.1666 33.2616 23.9388 33.2616 26.1249V27.7083C33.2616 29.8944 31.4894 31.6666 29.3033 31.6666H8.70833C6.52221 31.6666 4.75 29.8944 4.75 27.7083V26.1249ZM6.33295 15.0416C5.37173 14.3194 4.75 13.1698 4.75 11.8749V10.2916C4.75 8.10546 6.52221 6.33325 8.70833 6.33325H29.3033C31.4894 6.33325 33.2616 8.10546 33.2616 10.2916V11.8749C33.2616 13.1698 32.6399 14.3194 31.6787 15.0416C32.6399 15.7638 33.2616 16.9134 33.2616 18.2083V19.7916C33.2616 21.9777 31.4894 23.7499 29.3033 23.7499C28.8544 23.7499 28.5 23.3955 28.5 22.9583C28.5 22.521 28.8544 22.1666 29.2917 22.1666C30.615 22.1666 31.6783 21.1033 31.6783 19.7916V18.2083C31.6783 16.8966 30.615 15.8333 29.3033 15.8333H8.70833C7.39666 15.8333 6.33333 16.8966 6.33333 18.2083V19.7916C6.33333 21.1033 7.39666 22.1666 8.70833 22.1666C9.14556 22.1666 9.5 22.521 9.5 22.9583C9.5 23.3955 9.14556 23.7499 8.70833 23.7499C6.52221 23.7499 4.75 21.9777 4.75 19.7916V18.2083C4.75 16.9134 5.37173 15.7638 6.33295 15.0416ZM6.33333 26.1249V27.7083C6.33333 29.0199 7.39666 30.0833 8.70833 30.0833H29.3033C30.615 30.0833 31.6783 29.0199 31.6783 27.7083V26.1249C31.6783 24.8132 30.615 23.7499 29.3033 23.7499H8.70833C7.39666 23.7499 6.33333 24.8132 6.33333 26.1249ZM8.70833 12.6666C8.27111 12.6666 7.91667 12.3121 7.91667 11.8749C7.91667 11.4377 8.27111 11.0833 8.70833 11.0833H11.875C12.3122 11.0833 12.6667 11.4377 12.6667 11.8749C12.6667 12.3121 12.3122 12.6666 11.875 12.6666H8.70833ZM8.70833 20.5833C8.27111 20.5833 7.91667 20.2288 7.91667 19.7916C7.91667 19.3544 8.27111 18.9999 8.70833 18.9999H11.875C12.3122 18.9999 12.6667 19.3544 12.6667 19.7916C12.6667 20.2288 12.3122 20.5833 11.875 20.5833H8.70833ZM8.70833 28.4999C8.27111 28.4999 7.91667 28.1455 7.91667 27.7083C7.91667 27.271 8.27111 26.9166 8.70833 26.9166H11.875C12.3122 26.9166 12.6667 27.271 12.6667 27.7083C12.6667 28.1455 12.3122 28.4999 11.875 28.4999H8.70833Z" fill="#1A5EFF"/>
</svg>