<svg width="38" height="38" viewBox="0 0 38 38" fill="none" xmlns="http://www.w3.org/2000/svg" id="svg-1926269318_1937">
<path d="M14.1758 28.4758C13.8185 30.2946 12.2154 31.6667 10.2918 31.6667H7.12513C6.6879 31.6667 6.33346 31.3123 6.33346 30.875V27.7084C6.33346 25.7848 7.70555 24.1817 9.52439 23.8244L9.54311 23.2816C9.57476 22.3639 9.66927 21.4631 9.82237 20.5834H3.95846C3.39839 20.5834 3.01541 20.0177 3.22342 19.4977L6.39009 11.581C6.51031 11.2805 6.80141 11.0834 7.12513 11.0834H14.2501C14.2903 11.0834 14.3298 11.0864 14.3684 11.0922C18.0962 6.84236 23.6309 4.23857 29.7213 4.44859C30.6882 4.48193 31.6513 4.58711 32.6026 4.76328C32.925 4.82298 33.1772 5.07519 33.2369 5.39756C34.5361 12.4132 31.9079 19.2468 26.9084 23.6346C26.9139 23.6723 26.9168 23.7108 26.9168 23.75V30.875C26.9168 31.1988 26.7197 31.4899 26.4191 31.6101L18.5025 34.7768C17.9825 34.9848 17.4168 34.6018 17.4168 34.0417V28.1754C16.5251 28.3317 15.6235 28.4259 14.7186 28.4571L14.1758 28.4758ZM12.647 28.0165L9.98368 25.3532C8.81757 25.5042 7.9168 26.5011 7.9168 27.7084V30.0834H10.2918C11.4991 30.0834 12.4959 29.1826 12.647 28.0165ZM19.0001 27.8303V32.8724L25.3335 30.3391V24.8793C23.4618 26.2075 21.3298 27.2216 19.0001 27.8303ZM10.1664 19C10.77 16.6907 11.7842 14.5532 13.1239 12.6667H7.66111L5.12778 19H10.1664ZM13.775 26.9053L14.664 26.8747C15.5525 26.844 16.4374 26.7474 17.3115 26.5855C26.8696 24.8155 33.2434 15.77 31.7721 6.2283C31.075 6.1212 30.372 6.05529 29.6668 6.03098C19.7681 5.68964 11.4668 13.4374 11.1255 23.3362L11.0948 24.2252L13.775 26.9053ZM22.1668 20.5834C19.5434 20.5834 17.4168 18.4567 17.4168 15.8334C17.4168 13.21 19.5434 11.0834 22.1668 11.0834C24.7901 11.0834 26.9168 13.21 26.9168 15.8334C26.9168 18.4567 24.7901 20.5834 22.1668 20.5834ZM22.1668 19C23.9157 19 25.3335 17.5823 25.3335 15.8334C25.3335 14.0845 23.9157 12.6667 22.1668 12.6667C20.4179 12.6667 19.0001 14.0845 19.0001 15.8334C19.0001 17.5823 20.4179 19 22.1668 19Z" fill="#1A5EFF"/>
</svg>