<svg width="38" height="38" viewBox="0 0 38 38" fill="none" xmlns="http://www.w3.org/2000/svg" id="svg-540636924_1545">
<path d="M9.16752 23.8135C9.37718 23.7536 9.60225 23.7828 9.78966 23.8943C11.3658 24.8316 13.1662 25.3334 15.042 25.3334C20.7259 25.3334 25.3337 20.7257 25.3337 15.0417C25.3337 9.35782 20.7259 4.75008 15.042 4.75008C9.35806 4.75008 4.75032 9.35782 4.75032 15.0417C4.75032 16.9175 5.25214 18.7179 6.18948 20.2941C6.30093 20.4815 6.33015 20.7066 6.27025 20.9162L5.11134 24.9724L9.16752 23.8135ZM26.4083 11.5924C31.3643 13.0936 34.8337 17.6832 34.8337 22.9584C34.8337 25.003 34.3156 26.9733 33.3448 28.7197L34.8032 33.8243C34.9738 34.4215 34.4217 34.9736 33.8245 34.803L28.72 33.3445C26.9736 34.3153 25.0032 34.8334 22.9587 34.8334C17.6885 34.8334 13.0963 31.3701 11.5926 26.4079C10.7898 26.1646 10.0154 25.8363 9.28067 25.4279L4.17614 26.8863C3.57894 27.0569 3.02682 26.5048 3.19745 25.9076L4.65588 20.8031C3.68508 19.0567 3.16699 17.0863 3.16699 15.0417C3.16699 8.48337 8.4836 3.16675 15.042 3.16675C20.4007 3.16675 24.9304 6.71625 26.4083 11.5924ZM26.8057 13.4091C26.8791 13.9428 26.917 14.4879 26.917 15.0417C26.917 21.6001 21.6004 26.9167 15.042 26.9167C14.4914 26.9167 13.9463 26.8792 13.4094 26.8053C14.9536 30.6417 18.7011 33.2501 22.9587 33.2501C24.8344 33.2501 26.6348 32.7483 28.211 31.8109C28.3984 31.6995 28.6235 31.6703 28.8331 31.7302L32.8893 32.8891L31.7304 28.8329C31.6705 28.6232 31.6997 28.3981 31.8112 28.2107C32.7485 26.6346 33.2503 24.8342 33.2503 22.9584C33.2503 18.6971 30.6377 14.9515 26.8057 13.4091Z" fill="#1A5EFF"/>
</svg>