<svg width="134" height="30" fill="none" xmlns="http://www.w3.org/2000/svg" id="svg-1299315372_5950"><g clip-path="url(#svg-1299315372_5950_a)"><path d="m130.473 5.748 3.196 3.152a.702.702 0 0 1 .238.338c.065.776-.535.818-1.147.861-.265.02-.533.038-.749.117a5.435 5.435 0 0 0-2.747 1.724 5.249 5.249 0 0 0-1.24 2.955.744.744 0 0 1-.301.297.725.725 0 0 1-.863-.114l-1.049-1.035c.007.07.007.14.007.197v.683c0 .043.002.084-.003.126a.288.288 0 0 1-.061.14v.064c0 .033.004.063.008.093.007.063.016.127-.008.217-.023.084-.025.181-.028.269-.001.051-.003.1-.008.139-.008.054-.008.113-.012.17a.449.449 0 0 1-.039.16.537.537 0 0 0-.048.21c-.002.033-.002.066-.002.1l-.043.218-1.63 7.613-.13.57-.05.83-.718 3.595-.115.563H64.798l-.28-.274-.05.239h-6.22l-3.463-3.412.33-1.541h-1.953l-1.214-1.203a8.679 8.679 0 0 1-5.194 1.604 7.672 7.672 0 0 1-5.43-1.956l-1.889-1.865-.41 1.872a7.96 7.96 0 0 1-.186.767l-.065.232-.108.338a.425.425 0 0 1-.035.084 7.92 7.92 0 0 1-.381.908.055.055 0 0 1 0 .035.899.899 0 0 1-.065.112c-.108.21-.228.415-.359.613a.878.878 0 0 0-.065.112l-.079.085a6.867 6.867 0 0 1-.574.703 4.937 4.937 0 0 1-.172.16l-.18.157-.158.147a6.817 6.817 0 0 1-.568.415 8.829 8.829 0 0 1-4.906 1.175c-2.37 0-4.267-.675-5.466-1.857l-3.376-3.328a8.902 8.902 0 0 1-4.425 1.112 7.685 7.685 0 0 1-5.402-1.984l-1.889-1.865-.61 2.878-.122.57H3.477L0 21.599l.18-.83L4 2.793l.115-.563h6.378l.166.155V2.23h42.976l.158.155V2.23h6.22l3.477 3.434-.172.823-.187.9h1.789l.28.275a5.32 5.32 0 0 1 2.593-.704 4.892 4.892 0 0 1 1.955.367 4.808 4.808 0 0 1 1.636 1.11l-.093-.105 1.688 1.668c1.027-1.893 3.333-3.04 6.464-3.04 2.428 0 4.217.605 5.301 1.703l1.222 1.203.41-1.935.121-.563h6.228l1.781 1.752.252-1.182.122-.563h12.255l.33.324a5.27 5.27 0 0 1 2.744-.704 3.998 3.998 0 0 1 1.691.305 3.93 3.93 0 0 1 1.397.983l-.058-.066c-.035-.04-.069-.08-.106-.116l.624.611a5.757 5.757 0 0 1 1.92-1.283 5.852 5.852 0 0 1 2.282-.434c.416-.025.831.01 1.233.102l-.68-.671a.699.699 0 0 1-.144-.738.726.726 0 0 1 .618-.445h.546c.147-.013.294-.034.438-.063a5.313 5.313 0 0 0 2.103-.94 5.176 5.176 0 0 0 1.489-1.733c.032-.053.06-.107.086-.162v-.035a4.817 4.817 0 0 0 .446-1.654.696.696 0 0 1 .227-.466.726.726 0 0 1 .491-.188h.057a.729.729 0 0 1 .539.324c.517.492 3.39 3.356 3.39 3.356.24.252.222.58.204.91-.012.205-.023.411.026.602a4.712 4.712 0 0 0 .776.07.726.726 0 0 1 .413.14c.12.086.209.207.255.346Z" fill="#95928E"/><path d="M32.877 8.063h4.54l-2.543 11.813c-.467 2.237-1.358 3.518-2.708 4.425a8.21 8.21 0 0 1-4.511 1.056c-3.003 0-5.883-1.232-6.17-4.222h4.568c.144.704.805 1.105 1.81 1.105 1.358 0 1.983-.802 2.263-2.062l.273-1.301h-.1a4.402 4.402 0 0 1-1.43 1.02 4.473 4.473 0 0 1-1.724.387c-2.643 0-4.74-2.062-4.698-5.08.058-3.518 2.4-7.514 6.329-7.514a3.975 3.975 0 0 1 2.142.463c.654.352 1.192.88 1.55 1.521h.079l.33-1.611Zm-3.9 8.921c1.745 0 2.715-1.97 2.744-3.666 0-1.132-.453-2.293-1.79-2.293-1.824 0-2.75 1.991-2.779 3.7 0 1.155.453 2.26 1.789 2.26m51 .379c0 .753-.662 1.055-1.53 1.055-1.437 0-1.918-.703-1.926-1.688h-4.518c-.079 3.672 3.269 4.58 6.243 4.58 3.799 0 6.263-1.611 6.314-4.826 0-2.569-2.235-3.35-4.432-3.849-1.689-.38-2.428-.654-2.422-1.28.008-.627.762-.88 1.502-.88.927 0 1.558.324 1.623 1.154h4.39c-.051-3.068-2.874-3.968-5.747-3.968-3.491 0-6.214 1.555-6.257 4.496 0 2.314 1.595 3.166 4 3.77 1.545.402 2.773.528 2.76 1.436Zm33.566-7.394h-.079a3.155 3.155 0 0 0-1.223-1.72 3.267 3.267 0 0 0-2.053-.588c-1.953 0-3.146.95-4.273 2.385h-.079l.416-1.984h-4.569L98.91 20.882h4.778l1.436-6.916c.33-1.506 1.114-2.561 2.299-2.561 1.185 0 1.343.929 1.099 2.061l-1.581 7.416h4.777l1.437-6.916c.33-1.604 1.113-2.561 2.298-2.561s1.344.88 1.1 2.061l-1.581 7.416h4.777l1.71-7.62c.718-3.215-.381-5.628-3.534-5.628a5.33 5.33 0 0 0-2.513.616c-.772.408-1.427 1-1.905 1.72ZM.877 20.882H5.81L9.625 2.906H4.698L.876 20.882ZM15.73 7.683c3.333 0 6.515 1.787 6.465 5.832-.043 4.426-3.118 7.74-7.815 7.74-3.233 0-6.465-1.76-6.408-5.784.08-4.32 3.11-7.788 7.758-7.788Zm-1.214 10.434c2.105 0 2.873-2.99 2.873-4.75 0-1.259-.395-2.49-1.781-2.49-2.083 0-2.794 3.166-2.794 4.798 0 1.31.373 2.442 1.73 2.442M11.27 2.906 10.552 6.5h41.44l.717-3.595H11.27ZM44.6 7.683c3.333 0 6.515 1.787 6.465 5.832-.044 4.426-3.125 7.74-7.823 7.74-3.232 0-6.465-1.76-6.4-5.784.1-4.32 3.132-7.788 7.758-7.788Zm-1.193 10.434c2.105 0 2.874-2.99 2.874-4.75 0-1.259-.403-2.49-1.789-2.49-2.076 0-2.794 3.166-2.794 4.798 0 1.31.373 2.442 1.738 2.442M54.405 2.906 53.686 6.5h4.77l.718-3.595h-4.77Zm-3.822 17.976h4.777l2.737-12.82H53.29l-2.708 12.82Zm15.243.429a4.174 4.174 0 0 1-2.196-.45 4.066 4.066 0 0 1-1.626-1.513h-.079l-1.436 6.487h-4.835l3.88-17.772h4.539l-.36 1.71a5.265 5.265 0 0 1 1.797-1.516 5.38 5.38 0 0 1 2.291-.595c2.873 0 4.561 2.413 4.511 5.551-.065 3.947-2.155 8.098-6.515 8.098h.029Zm-.187-10.019c-1.846 0-2.981 2.315-3.01 4.095 0 1.238.446 2.617 1.961 2.617 1.976 0 2.787-2.56 2.809-4.27 0-1.161-.345-2.442-1.76-2.442Zm27.619 7.57h.079l-.417 2.034h4.54l2.737-12.82h-4.77l-1.523 7.163c-.308 1.485-1.242 2.266-2.42 2.266s-1.437-1.084-1.2-2.216l1.544-7.212h-4.77l-1.688 7.915c-.718 3.447.92 5.305 3.664 5.305a4.976 4.976 0 0 0 2.448-.669 4.85 4.85 0 0 0 1.776-1.78v.015Zm25.622 7.036.718-3.595H62.953l-.719 3.595h56.646Z" fill="#fff"/><path d="M124.015 11.58a.363.363 0 0 1-.314-.242.335.335 0 0 1-.016-.137 4.377 4.377 0 0 0-.223-1.855 4.446 4.446 0 0 0-.978-1.603 4.561 4.561 0 0 0-1.56-1.072 4.65 4.65 0 0 0-1.873-.353.362.362 0 0 1-.253-.103.35.35 0 0 1-.106-.249.35.35 0 0 1 .106-.249.362.362 0 0 1 .253-.103c.173.011.346.011.518 0a5.562 5.562 0 0 0 3.361-1.596 5.352 5.352 0 0 0 1.552-3.329.35.35 0 0 1 .115-.23.362.362 0 0 1 .244-.093.368.368 0 0 1 .246.122.354.354 0 0 1 .085.258 4.38 4.38 0 0 0 .222 1.852c.207.596.539 1.142.975 1.602.438.461.968.827 1.559 1.073a4.647 4.647 0 0 0 1.87.355c.094 0 .186.037.254.103a.35.35 0 0 1-.254.601 5.599 5.599 0 0 0-3.674 1.446 5.38 5.38 0 0 0-1.749 3.479.35.35 0 0 1-.115.23.365.365 0 0 1-.245.094Z" fill="#fff"/></g><defs><clipPath id="svg-1299315372_5950_a"><path fill="#fff" d="M0 0h134v30H0z"/></clipPath></defs></svg>