<svg width="81" height="30" fill="none" xmlns="http://www.w3.org/2000/svg" id="svg-1886426384_4927"><g clip-path="url(#svg-1886426384_4927_a)" fill="#95928E"><path d="M37.133 26.429h2.11v-7.736h-2.11v7.736Zm0-8.942h2.11v-1.84h-2.11v1.84Zm3.469 11.475h2.11v-3.408h.03c.45.664 1.18 1.101 2.296 1.101 2.047 0 3.443-1.583 3.443-4.087 0-2.412-1.35-4.086-3.459-4.086-1.085 0-1.83.498-2.342 1.176h-.046v-.965h-2.032v10.27Zm3.986-4.011c-1.256 0-1.923-.92-1.923-2.322 0-1.388.527-2.488 1.846-2.488 1.302 0 1.83 1.025 1.83 2.488 0 1.462-.683 2.322-1.753 2.322Zm8.102 1.704c1.985 0 3.35-.935 3.35-2.488 0-1.81-1.474-2.172-2.808-2.443-1.132-.226-2.187-.287-2.187-.95 0-.558.543-.86 1.365-.86.9 0 1.443.302 1.536 1.131h1.907c-.155-1.553-1.318-2.563-3.412-2.563-1.815 0-3.242.8-3.242 2.473 0 1.689 1.396 2.066 2.823 2.337 1.086.211 2.094.287 2.094 1.026 0 .542-.527.89-1.458.89-.946 0-1.597-.393-1.737-1.282h-1.954c.124 1.643 1.411 2.729 3.722 2.729Zm11.358-.226v-7.736h-2.11v4.463c0 1.026-.604 1.75-1.597 1.75-.9 0-1.318-.498-1.318-1.403v-4.81h-2.094v5.157c0 1.689.992 2.79 2.76 2.79 1.117 0 1.738-.407 2.28-1.116h.047v.905h2.032Zm1.365 0h2.11v-4.494c0-1.025.573-1.689 1.426-1.689.776 0 1.225.453 1.225 1.327v4.856h2.11v-4.494c0-1.025.543-1.689 1.427-1.689.775 0 1.225.453 1.225 1.327v4.856h2.11v-5.203c0-1.688-.947-2.744-2.622-2.744-1.008 0-1.846.513-2.389 1.357h-.03c-.388-.814-1.195-1.357-2.203-1.357-1.101 0-1.877.543-2.311 1.252h-.046v-1.04h-2.032v7.735ZM37.165 13.18h2.109V2.396h-2.11V13.18Zm7.267.225c2.466 0 4.156-1.78 4.156-4.087 0-2.307-1.69-4.086-4.156-4.086-2.466 0-4.157 1.78-4.157 4.086 0 2.308 1.69 4.087 4.157 4.087Zm0-1.568c-1.303 0-2.017-1.01-2.017-2.519 0-1.507.714-2.533 2.017-2.533 1.287 0 2.016 1.026 2.016 2.533 0 1.508-.729 2.519-2.016 2.519Zm8.642 3.981c1.18 0 2.203-.272 2.87-.875.589-.528.946-1.267.946-2.352V5.443h-2.032v.814h-.031c-.48-.648-1.21-1.025-2.203-1.025-2.016 0-3.443 1.478-3.443 3.785 0 2.337 1.737 3.694 3.506 3.694 1.008 0 1.613-.392 2.078-.904h.046v.844c0 1.056-.573 1.614-1.768 1.614-.977 0-1.427-.378-1.597-.86h-2.094c.217 1.508 1.55 2.413 3.722 2.413Zm-.03-4.75c-1.086 0-1.8-.77-1.8-2.081 0-1.297.714-2.111 1.784-2.111 1.272 0 1.892.965 1.892 2.096 0 1.146-.543 2.096-1.877 2.096Zm8.973 2.337c2.466 0 4.157-1.78 4.157-4.087 0-2.307-1.69-4.086-4.157-4.086-2.466 0-4.157 1.78-4.157 4.086 0 2.308 1.691 4.087 4.157 4.087Zm0-1.568c-1.303 0-2.016-1.01-2.016-2.519 0-1.507.713-2.533 2.016-2.533 1.287 0 2.017 1.026 2.017 2.533 0 1.508-.73 2.519-2.017 2.519Zm6.006-1.614h9.12V8.46h-9.12v1.764Zm9.788 7.156c0-.347.29-.629.647-.629h1.292c.357 0 .647.282.647.629 0 .347-.29.628-.647.628h-1.292a.638.638 0 0 1-.647-.628Z"/><path fill-rule="evenodd" clip-rule="evenodd" d="M15.83 0c8.522 0 15.43 6.716 15.43 15 0 8.284-6.908 15-15.43 15C7.31 30 .403 23.284.403 15c0-8.284 6.908-15 15.429-15Zm-.557 1.122c-1.76.241-3.436 1.616-4.737 3.916a15.415 15.415 0 0 0-1.015 2.2 26.509 26.509 0 0 1 5.752-.727V1.122ZM8.218 7.598a17.06 17.06 0 0 1 1.34-3.083c.646-1.14 1.411-2.124 2.274-2.88-4.69 1.324-8.386 4.918-9.748 9.477.778-.839 1.79-1.583 2.963-2.21a18.089 18.089 0 0 1 3.17-1.304Zm-.371 1.268a24.44 24.44 0 0 0-.747 5.592H1.557c.248-1.712 1.662-3.34 4.027-4.606a16.294 16.294 0 0 1 2.263-.986Zm.368 5.592c.046-2.164.367-4.195.897-5.99 1.846-.516 3.936-.827 6.161-.872v2.342c-.83 2.067-2.524 3.713-4.65 4.52H8.216ZM7.1 15.542H1.557c.248 1.711 1.662 3.34 4.027 4.606.686.367 1.445.698 2.263.986a24.44 24.44 0 0 1-.747-5.592Zm2.012 5.99c-.53-1.794-.85-3.826-.897-5.99h2.409c2.125.807 3.819 2.453 4.65 4.52v2.342c-2.226-.045-4.316-.356-6.162-.872Zm-.894.87a18.084 18.084 0 0 1-3.171-1.304c-1.173-.627-2.185-1.371-2.963-2.21 1.362 4.56 5.058 8.153 9.748 9.477-.863-.756-1.628-1.74-2.273-2.88a17.06 17.06 0 0 1-1.341-3.083Zm7.055 6.476c-1.76-.241-3.436-1.616-4.737-3.916a15.418 15.418 0 0 1-1.015-2.2 26.57 26.57 0 0 0 5.752.727v5.389Zm4.557-.513c.863-.756 1.628-1.74 2.273-2.88.52-.921.972-1.957 1.341-3.083a18.084 18.084 0 0 0 3.171-1.304c1.173-.627 2.185-1.371 2.963-2.21-1.362 4.56-5.058 8.153-9.748 9.477Zm2.31-5.603a15.4 15.4 0 0 1-1.014 2.2c-1.301 2.3-2.977 3.675-4.737 3.916v-5.39a26.492 26.492 0 0 0 5.751-.726Zm1.675-1.628c.818-.288 1.576-.62 2.262-.986 2.366-1.265 3.78-2.895 4.028-4.606h-5.543a24.439 24.439 0 0 1-.747 5.592Zm-.369-5.592c-.046 2.164-.366 4.196-.896 5.99-1.846.516-3.936.827-6.161.872v-2.34c.83-2.068 2.523-3.715 4.65-4.522h2.407Zm1.116-1.084h5.543c-.248-1.712-1.662-3.34-4.027-4.606a16.294 16.294 0 0 0-2.263-.986c.444 1.72.706 3.609.747 5.592Zm-2.012-5.99c.53 1.795.85 3.826.896 5.99H21.04c-2.127-.807-3.82-2.454-4.65-4.522v-2.34c2.225.045 4.315.356 6.16.872Zm.894-.87c1.158.359 2.224.798 3.171 1.304 1.173.627 2.185 1.371 2.963 2.21-1.362-4.56-5.058-8.153-9.748-9.477.863.756 1.628 1.74 2.273 2.88.52.921.972 1.957 1.341 3.083ZM16.39 1.122c1.76.241 3.436 1.616 4.737 3.916.377.667.718 1.404 1.014 2.2a26.508 26.508 0 0 0-5.751-.727V1.122Z"/></g><defs><clipPath id="svg-1886426384_4927_a"><path fill="#fff" d="M0 0h81v30H0z"/></clipPath></defs></svg>