<svg width="166" height="30" fill="none" xmlns="http://www.w3.org/2000/svg" id="svg-614229060_4902"><g clip-path="url(#svg-614229060_4902_a)" fill="#95928E"><path d="M93.17 22.143h3.55V8.952h-3.55v13.191Zm0-15.249h3.55V3.757h-3.55v3.137Zm5.838 19.569h3.551V20.65h.052c.757 1.132 1.984 1.878 3.863 1.878 3.447 0 5.797-2.7 5.797-6.97 0-4.113-2.272-6.968-5.822-6.968-1.828 0-3.081.849-3.943 2.006h-.078V8.951h-3.42v17.512Zm6.71-6.84c-2.115 0-3.237-1.569-3.237-3.96 0-2.366.887-4.243 3.106-4.243 2.193 0 3.081 1.748 3.081 4.243 0 2.494-1.149 3.96-2.95 3.96Zm13.635 2.906c3.342 0 5.64-1.595 5.64-4.243 0-3.086-2.48-3.703-4.726-4.166-1.906-.386-3.681-.489-3.681-1.62 0-.951.914-1.466 2.297-1.466 1.515 0 2.429.514 2.585 1.929h3.211c-.26-2.649-2.219-4.372-5.743-4.372-3.055 0-5.457 1.363-5.457 4.218 0 2.88 2.35 3.522 4.752 3.985 1.827.36 3.524.489 3.524 1.749 0 .925-.887 1.517-2.454 1.517-1.593 0-2.689-.669-2.924-2.186h-3.289c.209 2.803 2.376 4.655 6.265 4.655Zm19.12-.386V8.95h-3.551v7.612c0 1.748-1.018 2.982-2.689 2.982-1.514 0-2.218-.848-2.218-2.39V8.95h-3.525v8.794c0 2.88 1.67 4.758 4.647 4.758 1.88 0 2.924-.695 3.838-1.903h.078v1.543h3.42Zm2.297 0h3.55V14.48c0-1.749.967-2.88 2.403-2.88 1.305 0 2.062.771 2.062 2.263v8.28h3.55V14.48c0-1.749.914-2.88 2.402-2.88 1.306 0 2.063.771 2.063 2.263v8.28h3.551V13.27c0-2.88-1.593-4.68-4.413-4.68-1.697 0-3.107.875-4.021 2.315h-.051c-.653-1.389-2.011-2.315-3.708-2.315-1.853 0-3.159.926-3.89 2.135h-.078V8.95h-3.42v13.192Zm-140.143 0h3.551V3.757H.628v18.386Zm12.233.386c4.151 0 6.997-3.035 6.997-6.97 0-3.933-2.846-6.968-6.997-6.968s-6.997 3.035-6.997 6.969 2.846 6.969 6.997 6.969Zm0-2.675c-2.193 0-3.394-1.723-3.394-4.294 0-2.572 1.201-4.32 3.394-4.32 2.167 0 3.394 1.748 3.394 4.32 0 2.571-1.227 4.294-3.394 4.294Zm14.547 6.789c1.985 0 3.708-.463 4.83-1.492.992-.9 1.593-2.16 1.593-4.011V8.95h-3.42v1.389h-.052c-.81-1.106-2.037-1.749-3.708-1.749-3.394 0-5.795 2.52-5.795 6.455 0 3.985 2.924 6.3 5.9 6.3 1.697 0 2.715-.669 3.498-1.543h.078v1.44c0 1.8-.965 2.751-2.976 2.751-1.645 0-2.402-.643-2.689-1.465h-3.524c.365 2.57 2.61 4.114 6.265 4.114Zm-.052-8.1c-1.827 0-3.028-1.312-3.028-3.549 0-2.211 1.2-3.6 3.002-3.6 2.141 0 3.185 1.646 3.185 3.575 0 1.954-.913 3.574-3.159 3.574Zm15.105 3.986c4.151 0 6.997-3.035 6.997-6.97 0-3.933-2.846-6.968-6.997-6.968-4.15 0-6.997 3.035-6.997 6.969s2.846 6.969 6.997 6.969Zm0-2.675c-2.193 0-3.394-1.723-3.394-4.294 0-2.572 1.201-4.32 3.394-4.32 2.167 0 3.394 1.748 3.394 4.32 0 2.571-1.227 4.294-3.394 4.294ZM161.641 6.786a1.08 1.08 0 0 1 1.088-1.072h2.175c.601 0 1.088.48 1.088 1.072a1.08 1.08 0 0 1-1.088 1.071h-2.175a1.08 1.08 0 0 1-1.088-1.071Z"/><path fill-rule="evenodd" clip-rule="evenodd" d="M70.99 0c8.41 0 15.23 6.716 15.23 15 0 8.284-6.82 15-15.23 15s-15.23-6.716-15.23-15c0-8.284 6.82-15 15.23-15Zm-.55 1.122c-1.738.241-3.392 1.616-4.676 3.916a15.498 15.498 0 0 0-1.002 2.2 25.847 25.847 0 0 1 5.678-.727V1.122Zm-6.965 6.476c.364-1.126.81-2.162 1.324-3.083.637-1.14 1.392-2.124 2.243-2.88-4.629 1.324-8.277 4.918-9.622 9.477.768-.839 1.768-1.583 2.925-2.21a17.731 17.731 0 0 1 3.13-1.304Zm-.366 1.268a24.738 24.738 0 0 0-.737 5.592H56.9c.245-1.712 1.64-3.34 3.976-4.606a15.977 15.977 0 0 1 2.233-.986Zm.364 5.592c.045-2.164.362-4.195.885-5.99 1.822-.516 3.885-.827 6.082-.872v2.342a8.042 8.042 0 0 1-4.59 4.52h-2.377Zm-1.101 1.084H56.9c.245 1.711 1.64 3.34 3.976 4.606.677.367 1.425.698 2.233.986a24.738 24.738 0 0 1-.737-5.592Zm1.986 5.99c-.523-1.794-.84-3.826-.885-5.99h2.377a8.042 8.042 0 0 1 4.59 4.52v2.342c-2.197-.045-4.26-.356-6.082-.872Zm-.883.87a17.726 17.726 0 0 1-3.13-1.304c-1.157-.627-2.157-1.371-2.925-2.21 1.345 4.56 4.993 8.153 9.622 9.477-.85-.756-1.606-1.74-2.243-2.88a17.184 17.184 0 0 1-1.324-3.083Zm6.965 6.476c-1.738-.241-3.392-1.616-4.676-3.916a15.502 15.502 0 0 1-1.002-2.2c1.746.432 3.665.687 5.678.727v5.389Zm4.498-.513c.851-.756 1.606-1.74 2.243-2.88.514-.921.96-1.957 1.324-3.083a17.735 17.735 0 0 0 3.13-1.304c1.157-.627 2.157-1.371 2.925-2.21-1.345 4.56-4.993 8.153-9.622 9.477Zm2.28-5.603c-.293.796-.63 1.533-1.002 2.2-1.284 2.3-2.938 3.675-4.675 3.916v-5.39a25.859 25.859 0 0 0 5.677-.726Zm1.653-1.628c.808-.288 1.556-.62 2.233-.986 2.336-1.265 3.731-2.895 3.976-4.606h-5.471c-.04 1.983-.3 3.872-.738 5.592Zm-.364-5.592c-.045 2.164-.361 4.196-.885 5.99-1.822.516-3.885.827-6.082.872v-2.34a8.043 8.043 0 0 1 4.59-4.522h2.377Zm1.102-1.084h5.47c-.244-1.712-1.64-3.34-3.975-4.606a15.955 15.955 0 0 0-2.233-.986 24.84 24.84 0 0 1 .738 5.592Zm-1.987-5.99c.524 1.795.84 3.826.885 5.99h-2.376a8.042 8.042 0 0 1-4.59-4.522v-2.34c2.196.045 4.259.356 6.08.872Zm.883-.87a17.74 17.74 0 0 1 3.13 1.304c1.157.627 2.157 1.371 2.925 2.21-1.345-4.56-4.993-8.153-9.622-9.477.851.756 1.606 1.74 2.243 2.88.514.921.96 1.957 1.324 3.083ZM71.54 1.122c1.738.241 3.392 1.616 4.676 3.916.373.667.71 1.404 1.002 2.2a25.854 25.854 0 0 0-5.678-.727V1.122Z"/></g><defs><clipPath id="svg-614229060_4902_a"><path fill="#fff" d="M0 0h166v30H0z"/></clipPath></defs></svg>