<svg width="60" height="22" fill="none" xmlns="http://www.w3.org/2000/svg" id="svg-888518192_1245"><g clip-path="url(#svg-888518192_1245_a)" fill="#95928E"><path d="M14.242 0C11.9 0 9.652.887 7.995 2.467L2.588 7.622C.93 9.202 0 11.344 0 13.577 0 18.23 3.955 22 8.835 22c2.343 0 4.59-.887 6.247-2.467l3.74-3.566L29.72 5.578A4.326 4.326 0 0 1 32.704 4.4c1.873 0 3.462 1.164 4.012 2.775l3.44-3.279C38.586 1.553 35.836 0 32.704 0c-2.344 0-4.59.887-6.248 2.467L11.82 16.422A4.327 4.327 0 0 1 8.835 17.6c-2.33 0-4.22-1.8-4.22-4.023a3.93 3.93 0 0 1 1.236-2.844l5.407-5.155A4.326 4.326 0 0 1 14.242 4.4c1.874 0 3.462 1.164 4.013 2.775l3.44-3.279C20.124 1.553 17.373 0 14.241 0Z"/><path d="M30.28 16.422a4.327 4.327 0 0 1-2.984 1.178c-1.873 0-3.461-1.164-4.012-2.774l-3.44 3.278c1.57 2.343 4.32 3.896 7.452 3.896 2.344 0 4.59-.887 6.248-2.467L48.181 5.578A4.326 4.326 0 0 1 51.164 4.4c2.33 0 4.22 1.8 4.22 4.023a3.93 3.93 0 0 1-1.236 2.844l-5.407 5.155a4.326 4.326 0 0 1-2.984 1.178c-1.874 0-3.462-1.164-4.013-2.775l-3.439 3.279c1.57 2.343 4.32 3.896 7.452 3.896 2.343 0 4.59-.887 6.247-2.467l5.407-5.155C59.07 12.798 60 10.656 60 8.423 60 3.77 56.044 0 51.165 0c-2.343 0-4.59.887-6.247 2.467L30.28 16.422Z"/></g><defs><clipPath id="svg-888518192_1245_a"><path fill="#fff" d="M0 0h60v22H0z"/></clipPath></defs></svg>