<svg width="24" height="25" viewBox="0 0 24 25" fill="none" xmlns="http://www.w3.org/2000/svg" id="svg-1782195943_711">
<path d="M12 22.5C6.47715 22.5 2 18.0228 2 12.5C2 6.97715 6.47715 2.5 12 2.5C17.5228 2.5 22 6.97715 22 12.5C22 18.0228 17.5228 22.5 12 22.5ZM12 21.5C16.9706 21.5 21 17.4706 21 12.5C21 7.52944 16.9706 3.5 12 3.5C7.02944 3.5 3 7.52944 3 12.5C3 17.4706 7.02944 21.5 12 21.5ZM15.1464 9.64645C15.3417 9.45118 15.6583 9.45118 15.8536 9.64645C16.0488 9.84171 16.0488 10.1583 15.8536 10.3536L10.8536 15.3536C10.6583 15.5488 10.3417 15.5488 10.1464 15.3536L8.14645 13.3536C7.95118 13.1583 7.95118 12.8417 8.14645 12.6464C8.34171 12.4512 8.65829 12.4512 8.85355 12.6464L10.5 14.2929L15.1464 9.64645Z" fill="#202738"/>
</svg>